<svg width="12" height="19" viewBox="0 0 12 19" fill="none" xmlns="http://www.w3.org/2000/svg">
<path d="M3.49316 15.8237C3.28841 15.8237 3.18604 15.7241 3.18604 15.5249V14.7197C3.18604 14.5205 3.28841 14.4209 3.49316 14.4209H4.27344C4.48926 14.4209 4.59717 14.5205 4.59717 14.7197V15.5249C4.59717 15.7241 4.48926 15.8237 4.27344 15.8237H3.49316ZM5.59326 15.8237C5.39404 15.8237 5.29443 15.7241 5.29443 15.5249V14.7197C5.29443 14.5205 5.39404 14.4209 5.59326 14.4209H6.38184C6.59766 14.4209 6.70557 14.5205 6.70557 14.7197V15.5249C6.70557 15.7241 6.59766 15.8237 6.38184 15.8237H5.59326ZM7.70166 15.8237C7.50244 15.8237 7.40283 15.7241 7.40283 15.5249V14.7197C7.40283 14.5205 7.50244 14.4209 7.70166 14.4209H8.48193C8.69775 14.4209 8.80566 14.5205 8.80566 14.7197V15.5249C8.80566 15.7241 8.69775 15.8237 8.48193 15.8237H7.70166ZM3.49316 9.1499C3.28841 9.1499 3.18604 9.04753 3.18604 8.84277V8.0459C3.18604 7.84115 3.28841 7.73877 3.49316 7.73877H4.27344C4.48926 7.73877 4.59717 7.84115 4.59717 8.0459V8.84277C4.59717 9.04753 4.48926 9.1499 4.27344 9.1499H3.49316ZM5.59326 9.1499C5.39404 9.1499 5.29443 9.04753 5.29443 8.84277V8.0459C5.29443 7.84115 5.39404 7.73877 5.59326 7.73877H6.38184C6.59766 7.73877 6.70557 7.84115 6.70557 8.0459V8.84277C6.70557 9.04753 6.59766 9.1499 6.38184 9.1499H5.59326ZM3.49316 6.89209C3.28841 6.89209 3.18604 6.79248 3.18604 6.59326V5.78809C3.18604 5.58333 3.28841 5.48096 3.49316 5.48096H4.27344C4.48926 5.48096 4.59717 5.58333 4.59717 5.78809V6.59326C4.59717 6.79248 4.48926 6.89209 4.27344 6.89209H3.49316ZM5.59326 6.89209C5.39404 6.89209 5.29443 6.79248 5.29443 6.59326V5.78809C5.29443 5.58333 5.39404 5.48096 5.59326 5.48096H6.38184C6.59766 5.48096 6.70557 5.58333 6.70557 5.78809V6.59326C6.70557 6.79248 6.59766 6.89209 6.38184 6.89209H5.59326ZM7.70166 6.89209C7.50244 6.89209 7.40283 6.79248 7.40283 6.59326V5.78809C7.40283 5.58333 7.50244 5.48096 7.70166 5.48096H8.48193C8.69775 5.48096 8.80566 5.58333 8.80566 5.78809V6.59326C8.80566 6.79248 8.69775 6.89209 8.48193 6.89209H7.70166ZM3.49316 4.64258C3.28841 4.64258 3.18604 4.5402 3.18604 4.33545V3.53857C3.18604 3.33382 3.28841 3.23145 3.49316 3.23145H4.27344C4.48926 3.23145 4.59717 3.33382 4.59717 3.53857V4.33545C4.59717 4.5402 4.48926 4.64258 4.27344 4.64258H3.49316ZM5.59326 4.64258C5.39404 4.64258 5.29443 4.5402 5.29443 4.33545V3.53857C5.29443 3.33382 5.39404 3.23145 5.59326 3.23145H6.38184C6.59766 3.23145 6.70557 3.33382 6.70557 3.53857V4.33545C6.70557 4.5402 6.59766 4.64258 6.38184 4.64258H5.59326ZM7.70166 4.64258C7.50244 4.64258 7.40283 4.5402 7.40283 4.33545V3.53857C7.40283 3.33382 7.50244 3.23145 7.70166 3.23145H8.48193C8.69775 3.23145 8.80566 3.33382 8.80566 3.53857V4.33545C8.80566 4.5402 8.69775 4.64258 8.48193 4.64258H7.70166ZM0.662598 16.1309V2.87451C0.662598 2.22705 0.870117 1.70687 1.28516 1.31396C1.7002 0.915527 2.24528 0.716309 2.92041 0.716309H9.07129C9.75195 0.716309 10.297 0.915527 10.7065 1.31396C11.1216 1.70687 11.3291 2.22705 11.3291 2.87451V16.1309C11.3291 16.7783 11.1216 17.2985 10.7065 17.6914C10.297 18.0898 9.75195 18.2891 9.07129 18.2891H2.92041C2.24528 18.2891 1.7002 18.0898 1.28516 17.6914C0.870117 17.2985 0.662598 16.7783 0.662598 16.1309ZM1.99902 15.915C1.99902 16.2471 2.0931 16.5016 2.28125 16.6787C2.4694 16.8613 2.74056 16.9526 3.09473 16.9526H8.90527C9.25391 16.9526 9.5223 16.8613 9.71045 16.6787C9.8986 16.5016 9.99268 16.2471 9.99268 15.915V3.09033C9.99268 2.7583 9.8986 2.50374 9.71045 2.32666C9.5223 2.14404 9.25391 2.05273 8.90527 2.05273H3.09473C2.74056 2.05273 2.4694 2.14404 2.28125 2.32666C2.0931 2.50374 1.99902 2.7583 1.99902 3.09033V15.915Z" fill="black"/>
</svg>
