<svg width="18" height="18" viewBox="0 0 18 18" fill="none" xmlns="http://www.w3.org/2000/svg">
<path d="M9 17.4736C7.83236 17.4736 6.73665 17.2523 5.71289 16.8096C4.68913 16.3724 3.78988 15.7664 3.01514 14.9917C2.2404 14.217 1.63167 13.3177 1.18896 12.2939C0.75179 11.2702 0.533203 10.1745 0.533203 9.00684C0.533203 7.83919 0.75179 6.74349 1.18896 5.71973C1.63167 4.69596 2.2404 3.79671 3.01514 3.02197C3.78988 2.2417 4.68913 1.63298 5.71289 1.1958C6.73665 0.758626 7.83236 0.540039 9 0.540039C10.1676 0.540039 11.2633 0.758626 12.2871 1.1958C13.3109 1.63298 14.2101 2.2417 14.9849 3.02197C15.7596 3.79671 16.3656 4.69596 16.8027 5.71973C17.2454 6.74349 17.4668 7.83919 17.4668 9.00684C17.4668 10.1745 17.2454 11.2702 16.8027 12.2939C16.3656 13.3177 15.7596 14.217 14.9849 14.9917C14.2101 15.7664 13.3109 16.3724 12.2871 16.8096C11.2633 17.2523 10.1676 17.4736 9 17.4736ZM9 16.0625C9.97396 16.0625 10.887 15.8799 11.7393 15.5146C12.5915 15.1494 13.3413 14.6431 13.9888 13.9956C14.6362 13.3481 15.1426 12.5983 15.5078 11.7461C15.873 10.8939 16.0557 9.98079 16.0557 9.00684C16.0557 8.03288 15.873 7.11979 15.5078 6.26758C15.1426 5.40983 14.6362 4.65999 13.9888 4.01807C13.3413 3.37061 12.5915 2.86426 11.7393 2.49902C10.887 2.13379 9.97396 1.95117 9 1.95117C8.02604 1.95117 7.11296 2.13379 6.26074 2.49902C5.40853 2.86426 4.65869 3.37061 4.01123 4.01807C3.36377 4.65999 2.85742 5.40983 2.49219 6.26758C2.12695 7.11979 1.94434 8.03288 1.94434 9.00684C1.94434 9.98079 2.12695 10.8939 2.49219 11.7461C2.85742 12.5983 3.36377 13.3481 4.01123 13.9956C4.65869 14.6431 5.40853 15.1494 6.26074 15.5146C7.11296 15.8799 8.02604 16.0625 9 16.0625ZM5.74609 9.7124C5.51367 9.7124 5.32275 9.6543 5.17334 9.53809C5.02393 9.41634 4.94922 9.24479 4.94922 9.02344C4.94922 8.80208 5.02116 8.63053 5.16504 8.50879C5.30892 8.38151 5.5026 8.31787 5.74609 8.31787H12.2539C12.4974 8.31787 12.6883 8.38151 12.8267 8.50879C12.9705 8.63053 13.0425 8.80208 13.0425 9.02344C13.0425 9.24479 12.9678 9.41634 12.8184 9.53809C12.6745 9.6543 12.4863 9.7124 12.2539 9.7124H5.74609Z" fill="#FF3B30"/>
</svg>
