<svg width="16" height="17" viewBox="0 0 16 17" fill="none" xmlns="http://www.w3.org/2000/svg">
<path d="M0.35498 5.25293V3.45166C0.35498 2.59391 0.570801 1.95199 1.00244 1.52588C1.43962 1.09424 2.09261 0.878418 2.96143 0.878418H4.69629V2.21484H2.97803C2.56299 2.21484 2.24479 2.32552 2.02344 2.54688C1.80208 2.7627 1.69141 3.08643 1.69141 3.51807V5.25293H0.35498ZM5.8335 2.21484V0.878418H10.1582V2.21484H5.8335ZM14.3003 5.25293V3.51807C14.3003 3.08643 14.1868 2.7627 13.96 2.54688C13.7386 2.32552 13.4232 2.21484 13.0137 2.21484H11.2954V0.878418H13.0303C13.8991 0.878418 14.5493 1.09424 14.981 1.52588C15.4181 1.95199 15.6367 2.59391 15.6367 3.45166V5.25293H14.3003ZM14.3003 10.6484V6.39014H15.6367V10.6484H14.3003ZM11.2954 16.1602V14.8237H13.0137C13.4232 14.8237 13.7386 14.7158 13.96 14.5C14.1868 14.2786 14.3003 13.9521 14.3003 13.5205V11.7856H15.6367V13.5869C15.6367 14.4447 15.4181 15.0866 14.981 15.5127C14.5493 15.9443 13.8991 16.1602 13.0303 16.1602H11.2954ZM5.8335 16.1602V14.8237H10.1582V16.1602H5.8335ZM2.96143 16.1602C2.09261 16.1602 1.43962 15.9443 1.00244 15.5127C0.570801 15.0866 0.35498 14.4447 0.35498 13.5869V11.7856H1.69141V13.5205C1.69141 13.9521 1.80208 14.2786 2.02344 14.5C2.24479 14.7158 2.56299 14.8237 2.97803 14.8237H4.69629V16.1602H2.96143ZM0.35498 10.6484V6.39014H1.69141V10.6484H0.35498Z" fill="black"/>
</svg>
